HIERARCHY
ROOT Elbow
{
	OFFSET	0.00	0.00	0.00
	CHANNELS 6 Xposition Yposition Zposition Zrotation Xrotation Yrotation
	JOINT L_Wrist
	{
		OFFSET	 0.208349	 0.000000	 0.000000
		CHANNELS 3 Zrotation Xrotation Yrotation
		JOINT L_index_Proximal
		{
			OFFSET	 0.093499	 0.010637	-0.002084
			CHANNELS 3 Zrotation Xrotation Yrotation
			JOINT L_index_b
			{
				OFFSET	 0.033152	 0.000000	 0.000000
				CHANNELS 3 Zrotation Xrotation Yrotation
				JOINT L_index_c
				{
					OFFSET	 0.018651	 0.000000	 0.000000
					CHANNELS 3 Zrotation Xrotation Yrotation
					End Site
					{
						OFFSET	 0.018651	 0.000000	 0.000000
					}
				}
			}
		}
		JOINT L_middle_Proximal
		{
			OFFSET	 0.090632	-0.006115	-0.003750
			CHANNELS 3 Zrotation Xrotation Yrotation
			JOINT L_middle_b
			{
				OFFSET	 0.037195	 0.000000	 0.000000
				CHANNELS 3 Zrotation Xrotation Yrotation
				JOINT L_middle_c
				{
					OFFSET	 0.021943	 0.000000	 0.000000
					CHANNELS 3 Zrotation Xrotation Yrotation
					End Site
					{
						OFFSET	 0.021943	 0.000000	 0.000000
					}
				}
			}
		}
		JOINT L_pinky_Proximal
		{
			OFFSET	 0.074015	-0.035449	-0.000417
			CHANNELS 3 Zrotation Xrotation Yrotation
			JOINT L_pinky_b
			{
				OFFSET	 0.027285	 0.000000	 0.000000
				CHANNELS 3 Zrotation Xrotation Yrotation
				JOINT L_pinky_c
				{
					OFFSET	 0.015093	 0.000000	 0.000000
					CHANNELS 3 Zrotation Xrotation Yrotation
					End Site
					{
						OFFSET	 0.015093	 0.000000	 0.000000
					}
				}
			}
		}
		JOINT L_ring_Proximal
		{
			OFFSET	 0.082801	-0.021859	-0.003750
			CHANNELS 3 Zrotation Xrotation Yrotation
			JOINT L_ring_b
			{
				OFFSET	 0.034478	 0.000000	 0.000000
				CHANNELS 3 Zrotation Xrotation Yrotation
				JOINT L_ring_c
				{
					OFFSET	 0.021377	 0.000000	 0.000000
					CHANNELS 3 Zrotation Xrotation Yrotation
					End Site
					{
						OFFSET	 0.021377	 0.000000	 0.000000
					}
				}
			}
		}
		JOINT L_thumb_Proximal
		{
			OFFSET	 0.030306	 0.018528	 0.004584
			CHANNELS 3 Zrotation Xrotation Yrotation
			JOINT L_thumb_a
			{
				OFFSET	 0.038520	 0.000000	 0.000000
				CHANNELS 3 Zrotation Xrotation Yrotation
				JOINT L_thumb_b
				{
					OFFSET	 0.026310	 0.000000	 0.000000
					CHANNELS 3 Zrotation Xrotation Yrotation
					End Site
					{
						OFFSET	 0.026310	 0.000000	 0.000000
					}
				}
			}
		}
	}
}
MOTION
Frames:    8
Frame Time: 0.01666667
-0.115212	 0.150202	 0.665883	-60.408780	 7.484368	 178.789600	-7.001983	 1.496412	 8.519766	 2.454471	-1.485916	-47.819670	-0.327875	 0.152160	-49.815770	 0.040688	-0.008734	-24.230010	-9.402579	-8.603334	-33.907770	 0.837474	-0.411085	-52.292880	-1.484789	 0.454852	-34.066850	-29.430330	-19.428460	-8.965837	-0.339147	 0.106774	-34.919730	 0.877562	-0.171971	-22.172540	-19.424840	-11.293050	-16.769430	-1.335481	 0.460618	-38.057850	-1.006655	 0.192722	-21.694230	 50.829440	 53.489270	-55.555480	-3.762727	 0.552391	-16.697000	-5.310908	 1.403135	-29.580170
-0.115286	 0.149974	 0.665211	-60.427930	 7.786626	 178.642600	-6.742609	 1.482097	 8.437684	 2.354155	-1.434678	-47.992520	-0.475314	 0.219305	-49.541080	-0.066572	 0.014422	-24.432550	-9.388845	-8.607693	-35.226470	 0.394803	-0.193788	-52.339310	-1.187938	 0.364712	-34.144440	-29.675260	-19.360910	-10.568650	-0.438219	 0.143038	-36.142480	 0.893657	-0.183497	-23.206510	-19.286550	-11.310860	-18.703810	-1.395796	 0.489879	-38.667690	-0.677680	 0.130848	-21.893840	 50.388530	 53.728060	-55.231340	-3.761450	 0.556519	-16.825950	-5.125545	 1.335408	-29.189160
-0.115322	 0.149485	 0.664861	-60.421600	 8.793854	 178.526200	-6.447876	 1.491875	 8.493815	 1.823896	-1.142839	-48.639840	-0.617162	 0.286932	-49.855180	-0.047020	 0.010574	-25.049920	-9.101144	-8.712550	-37.844060	-0.154041	 0.077488	-52.958640	-0.541686	 0.169458	-34.847720	-30.089210	-19.229310	-12.826640	-0.250819	 0.084779	-37.413340	 1.017991	-0.218840	-24.269990	-19.810030	-11.132710	-22.080410	-1.378278	 0.498936	-39.796890	-0.239997	 0.046971	-22.379220	 49.799420	 54.046200	-54.867330	-3.783861	 0.575425	-17.288300	-5.085002	 1.320618	-29.100350
-0.115798	 0.148946	 0.664737	-60.485880	 10.571070	 178.440700	-6.127884	 1.525517	 8.687025	 0.778745	-0.558531	-49.527560	-1.125515	 0.525407	-50.031680	-0.106770	 0.024711	-25.809110	-9.243178	-8.635887	-40.452640	-0.694454	 0.356921	-54.259450	-0.303543	 0.097485	-35.610900	-30.064250	-19.155640	-15.184170	-0.142353	 0.049539	-38.335840	 0.907619	-0.202063	-25.155490	-20.459510	-10.881840	-25.382700	-1.468290	 0.545555	-40.748360	-0.111137	 0.022360	-22.788570	 48.570490	 54.630890	-54.243820	-3.799817	 0.581818	-17.405000	-4.504551	 1.154843	-28.746250
-0.116629	 0.148418	 0.664620	-60.585960	 13.327530	 178.385300	-6.085958	 1.601411	 9.122926	-0.509282	 0.194746	-50.694520	-2.092078	 0.987757	-50.520360	-0.226999	 0.055175	-27.031000	-9.616863	-8.431305	-42.916740	-1.257970	 0.679522	-56.615650	-0.584732	 0.194536	-36.616660	-29.992810	-19.102200	-16.783840	-0.053656	 0.019168	-39.142820	 0.406066	-0.091501	-25.580330	-20.994760	-10.619080	-28.688630	-1.733423	 0.671591	-42.311730	-0.592842	 0.121343	-22.977440	 47.580340	 55.039730	-54.026730	-3.866553	 0.597127	-17.551800	-4.463943	 1.148023	-28.831250
-0.117283	 0.147812	 0.664364	-60.644680	 16.495100	 178.354100	-6.093590	 1.723137	 9.823407	-1.786407	 0.936369	-50.866930	-2.672925	 1.301499	-51.893420	-0.577852	 0.142161	-27.555440	-10.047570	-8.201089	-45.066570	-1.599823	 0.911938	-59.248320	-1.172554	 0.398627	-37.424540	-29.593440	-19.137510	-18.232720	-0.012061	 0.004502	-39.665010	-0.015738	 0.004380	-26.136790	-21.140410	-10.513300	-30.611300	-2.174936	 0.862138	-43.207560	-0.192237	 0.042546	-24.602870	 46.438060	 55.544170	-53.396660	-3.983322	 0.618164	-17.636450	-4.498772	 1.171800	-29.183480
-0.117785	 0.147206	 0.663962	-60.605740	 20.206550	 178.282800	-6.289202	 1.830643	 10.443370	-2.861382	 1.557706	-50.437370	-3.408681	 1.705023	-53.117240	-1.202764	 0.307009	-28.550970	-10.532030	-7.913529	-47.369820	-2.334067	 1.400935	-61.832980	-1.792833	 0.624878	-38.332780	-28.974790	-19.238460	-19.029220	-0.127753	 0.045362	-39.200080	-0.201451	 0.047487	-26.382130	-20.972010	-10.510120	-32.689570	-2.344235	 0.952956	-44.206810	-0.138839	 0.032808	-25.821090	 44.657140	 56.393570	-51.857980	-4.213459	 0.664029	-17.906540	-4.688859	 1.256939	-29.993140
-0.118261	 0.146780	 0.663505	-60.627320	 23.300850	 178.230600	-6.263425	 1.902101	 10.856150	-3.770439	 2.012366	-49.487460	-4.399955	 2.241535	-53.969850	-1.876360	 0.499362	-29.760320	-10.760190	-7.781215	-49.883270	-2.679287	 1.677084	-64.016290	-2.040447	 0.732114	-39.419000	-28.648930	-19.305410	-20.838710	-0.277885	 0.101581	-40.007770	-0.134598	 0.034469	-27.983330	-20.478010	-10.645190	-36.725150	-1.880057	 0.811573	-46.645950	 0.052813	-0.011516	-28.297730	 42.532080	 57.341280	-49.598790	-4.081119	 0.620544	-17.279880	-4.509431	 1.137555	-28.311530
